<svg width="22" height="22" viewBox="0 0 22 22" fill="none" xmlns="http://www.w3.org/2000/svg">
    <path fill-rule="evenodd" clip-rule="evenodd"
        d="M11.0055 1.83331C8.8188 1.83455 6.70685 2.6293 5.06183 4.06998C3.39408 5.53233 2.29321 7.53421 1.95158 9.72581C1.6024 11.9266 2.02917 14.1804 3.15883 16.1012C4.27227 17.999 6.02815 19.4355 8.10883 20.1511C8.57083 20.2381 8.73492 19.9466 8.73492 19.6982C8.73492 19.4736 8.72575 18.7339 8.72208 17.9492C6.17375 18.5176 5.63658 16.8401 5.63658 16.8401C5.47161 16.2754 5.11089 15.7879 4.61908 15.4651C3.78767 14.8811 4.68325 14.8958 4.68325 14.8958C4.97383 14.9361 5.25158 15.0452 5.4945 15.213C5.73833 15.3807 5.94092 15.6035 6.08758 15.8638C6.21133 16.0957 6.37908 16.3001 6.58075 16.4642C6.88109 16.7126 7.25036 16.863 7.63879 16.8952C8.02723 16.9273 8.41618 16.8396 8.75325 16.6439C8.7945 16.1672 9.00075 15.7217 9.33533 15.3881C7.30125 15.1506 5.16083 14.3449 5.16083 10.7406C5.14666 9.81116 5.48423 8.91074 6.10592 8.21973C5.82541 7.40859 5.85678 6.5221 6.19392 5.73281C6.19392 5.73281 6.963 5.48073 8.71383 6.69531C10.2139 6.27436 11.8008 6.27436 13.3008 6.69531C15.048 5.48073 15.8125 5.73281 15.8125 5.73281C16.1517 6.51931 16.1847 7.40848 15.9051 8.21973C16.5261 8.91102 16.863 9.81141 16.8483 10.7406C16.8483 14.3513 14.7042 15.1451 12.6647 15.3771C12.8848 15.6069 13.054 15.8805 13.1612 16.1802C13.2685 16.4798 13.3114 16.7987 13.2871 17.116C13.2871 18.3736 13.2761 19.3866 13.2761 19.6955C13.2761 19.9448 13.4411 20.2381 13.9058 20.1465C15.9829 19.428 17.7346 17.9906 18.8448 16.0939C19.9725 14.1747 20.3979 11.9232 20.0484 9.7249C19.7065 7.53531 18.6067 5.53526 16.9409 4.07365C15.2988 2.63371 13.1904 1.83778 11.0064 1.83331H11.0055Z"
        fill="white" />
</svg>