<svg width="18" height="18" viewBox="0 0 18 18" fill="none" xmlns="http://www.w3.org/2000/svg">
    <g clip-path="url(#clip0_315_37)">
        <path
            d="M9 18C13.9706 18 18 13.9706 18 9C18 4.02944 13.9706 0 9 0C4.02944 0 0 4.02944 0 9C0 13.9706 4.02944 18 9 18Z"
            fill="#F0F0F0" />
        <path d="M0.0761719 10.1739C0.285562 11.781 0.919148 13.2546 1.86053 14.4793L6.65211 10.1739H0.0761719Z"
            fill="#D80027" />
        <path d="M7.826 17.9238V11.3478L3.52063 16.1395C4.74537 17.0808 6.21891 17.7145 7.826 17.9238Z"
            fill="#D80027" />
        <path d="M7.826 0.0761833C6.21891 0.285574 4.74537 0.91916 3.52063 1.86054L7.826 6.6522V0.0761833Z"
            fill="#D80027" />
        <path d="M0.0761719 7.8261H6.65211L1.86049 3.52072C0.919113 4.74542 0.285527 6.219 0.0761719 7.8261Z"
            fill="#D80027" />
        <path d="M10.1738 0.0761833V6.65216L14.4793 1.86054C13.2545 0.91923 11.781 0.285539 10.1738 0.0761833Z"
            fill="#D80027" />
        <path d="M17.9238 7.8261C17.7144 6.219 17.0808 4.74543 16.1394 3.52069L11.3478 7.8261H17.9238Z"
            fill="#D80027" />
        <path d="M11.3478 10.1739L16.1394 14.4793C17.0808 13.2546 17.7144 11.781 17.9238 10.1739H11.3478Z"
            fill="#D80027" />
        <path d="M10.1738 17.9238C11.7809 17.7144 13.2545 17.0808 14.4792 16.1394L10.1738 11.3478V17.9238Z"
            fill="#D80027" />
        <path
            d="M16.1402 14.48L10.6602 9.00004L10.6602 9L16.1402 3.51999C15.9039 3.21286 15.6453 2.91741 15.364 2.63602C15.0827 2.3547 14.7872 2.09612 14.48 1.85984L9.00006 7.33982H9.00003L3.52005 1.85984C3.21292 2.09616 2.91743 2.35466 2.63604 2.63602C2.35472 2.91741 2.09615 3.21286 1.85986 3.52002L7.33985 8.99997L7.33988 9L1.8599 14.48C2.09622 14.7871 2.35476 15.0826 2.63608 15.364C2.91743 15.6453 3.21292 15.9039 3.52008 16.1402L9.00003 10.6602L14.48 16.1402C14.7871 15.9038 15.0826 15.6453 15.364 15.364C15.6454 15.0826 15.9039 14.7871 16.1402 14.48Z"
            fill="#496E2D" />
        <path
            d="M10.1739 17.9238V10.174V10.1739H17.9238C17.9739 9.78964 18 9.39786 18 9C18 8.60217 17.9739 8.21039 17.9238 7.82613H10.174L10.1739 7.8261V0.0762187C9.78968 0.0261914 9.39793 0 9 0C8.60214 3.51563e-05 8.21035 0.0261914 7.8261 0.0762187L7.82613 7.82603V7.8261H0.0762187C0.0261562 8.21035 0 8.60214 0 9C3.51563e-05 9.39793 0.0261562 9.78964 0.0762187 10.1739H7.82606L7.8261 17.9238C8.21039 17.9738 8.60207 18 9 18C9.39793 18 9.78968 17.9738 10.1739 17.9238Z"
            fill="#F0F0F0" />
    </g>
    <defs>
        <clipPath id="clip0_315_37">
            <rect width="18" height="18" fill="white" />
        </clipPath>
    </defs>
</svg>