<svg width="50" height="50" viewBox="0 0 50 50" fill="none" xmlns="http://www.w3.org/2000/svg">
<path d="M24.9843 42.6357C30.7286 42.6357 34.1186 39.8263 34.6209 34.239C35.2016 27.6629 35.1859 21.3065 34.5895 14.2596C34.1343 8.92337 30.7286 6.1297 24.9843 6.1297C19.2557 6.1297 15.8499 8.92337 15.3948 14.2596C14.7984 21.3065 14.7827 27.6629 15.3634 34.239C15.8656 39.8263 19.2557 42.6357 24.9843 42.6357ZM24.9843 39.5752C21.0606 39.5752 18.7535 37.8959 18.4239 34.239C17.8589 27.6472 17.8746 21.2908 18.4553 14.2596C18.7378 10.8695 21.0606 9.19018 24.9843 9.19018C28.9237 9.19018 31.2465 10.8695 31.529 14.2596C32.1097 21.2908 32.1254 27.6472 31.5604 34.239C31.2308 37.8959 28.9237 39.5752 24.9843 39.5752ZM25.769 30.9117C25.9417 30.6763 26.0829 30.3781 26.0829 30.0642C26.0829 30.0171 26.0829 29.97 26.0672 29.9386C25.769 29.9386 25.3923 30.1427 25.204 30.3938C25.0157 30.5978 24.843 30.9117 24.843 31.2256C24.843 31.257 24.8587 31.3198 24.8587 31.3355H24.9372C25.2197 31.3355 25.565 31.1471 25.769 30.9117ZM24.9843 35.7457C25.4708 35.7457 25.565 35.9811 25.9731 35.9811C26.3811 35.9811 26.6636 35.6045 26.9147 35.2278C27.2129 34.8197 27.3385 34.4116 27.3385 34.3803C27.3071 34.3646 26.5224 34.0664 26.5224 33.1561C26.5224 32.3713 27.1345 32.0417 27.1659 31.9947C26.7735 31.4296 26.1457 31.4296 25.9731 31.4296C25.5179 31.4296 25.1569 31.6808 24.9215 31.6808C24.639 31.6808 24.3251 31.4296 23.9327 31.4296C23.1794 31.4296 22.4103 32.0574 22.4103 33.2188C22.4103 33.9722 22.6928 34.7255 23.0381 35.2121C23.3363 35.6515 23.6188 35.9811 23.9955 35.9811C24.3722 35.9811 24.5291 35.7457 24.9843 35.7457Z" fill="white"/>
</svg>
