<svg width="22" height="22" viewBox="0 0 22 22" fill="none" xmlns="http://www.w3.org/2000/svg">
<path fill-rule="evenodd" clip-rule="evenodd" d="M8.64324 8.22156H12.0477V9.9174C12.5382 8.94206 13.7958 8.06573 15.6851 8.06573C19.3068 8.06573 20.1667 10.0072 20.1667 13.5694V20.1666H16.5V14.3806C16.5 12.3521 16.0096 11.2081 14.7611 11.2081C13.0295 11.2081 12.3099 12.441 12.3099 14.3797V20.1666H8.64324V8.22156ZM2.35583 20.0108H6.0225V8.06573H2.35583V20.0108ZM6.54775 4.17081C6.54788 4.47815 6.48693 4.78245 6.36843 5.06602C6.24994 5.34959 6.07626 5.60678 5.85749 5.82265C5.63808 6.04092 5.37781 6.21382 5.09155 6.33147C4.80529 6.44912 4.49865 6.50921 4.18916 6.50831C3.56546 6.50691 2.96717 6.26108 2.52266 5.82356C2.30477 5.60691 2.13173 5.34941 2.01345 5.06582C1.89517 4.78222 1.83396 4.47809 1.83333 4.17081C1.83333 3.55023 2.08083 2.95623 2.52358 2.51806C2.96697 2.07887 3.56599 1.83274 4.19008 1.83331C4.81525 1.83331 5.41474 2.0799 5.85749 2.51806C6.30024 2.95623 6.54775 3.55023 6.54775 4.17081Z" fill="white"/>
</svg>
