<svg width="100" height="107" viewBox="0 0 100 107" fill="none" xmlns="http://www.w3.org/2000/svg">
<rect y="4" width="100" height="100" rx="24" fill="white"/>
<path d="M19.2061 85.835C15.4707 85.835 13.2734 83.5498 13.2734 79.6387V29.2773C13.2734 23.916 16.4375 20.708 21.8428 20.708C26.457 20.708 29.0059 22.6416 30.9395 27.5635L46.6719 66.543H47.0234L62.7119 27.5635C64.6455 22.6855 67.2383 20.708 71.8965 20.708C77.2578 20.708 80.4219 23.8721 80.4219 29.2773V79.6387C80.4219 83.5498 78.2246 85.835 74.4893 85.835C70.7539 85.835 68.6006 83.5498 68.6006 79.6387V42.1973H68.249L52.5605 80.5615C51.418 83.374 49.6602 84.6045 46.8916 84.6045C44.0791 84.6045 42.2334 83.3301 41.1348 80.6055L25.4463 42.1973H25.0947V79.6387C25.0947 83.5498 22.9414 85.835 19.2061 85.835Z" fill="black"/>
<rect x="64" y="66" width="29" height="29" fill="white"/>
<path d="M80.43 65.915C80.43 66.6918 80.277 67.4609 79.9797 68.1786C79.6825 68.8962 79.2468 69.5483 78.6975 70.0975C78.1483 70.6468 77.4962 71.0825 76.7785 71.3797C76.0609 71.677 75.2917 71.83 74.515 71.83C73.7382 71.83 72.969 71.677 72.2514 71.3797C71.5338 71.0825 70.8817 70.6468 70.3324 70.0975C69.7832 69.5483 69.3475 68.8962 69.0502 68.1786C68.753 67.4609 68.6 66.6918 68.6 65.915L74.515 65.915H80.43Z" fill="black"/>
</svg>
